<?xml version="1.0" encoding="utf-8"?>
<!-- Generator: Adobe Illustrator 17.0.0, SVG Export Plug-In . SVG Version: 6.00 Build 0)  -->
<!DOCTYPE svg PUBLIC "-//W3C//DTD SVG 1.1//EN" "http://www.w3.org/Graphics/SVG/1.1/DTD/svg11.dtd">
<svg version="1.1" id="Layer_1" xmlns="http://www.w3.org/2000/svg" xmlns:xlink="http://www.w3.org/1999/xlink" x="0px" y="0px"
	 width="128.813px" height="159.656px" viewBox="11.692 15.833 128.813 159.656"
	 enable-background="new 11.692 15.833 128.813 159.656" xml:space="preserve">
<g>
	<g transform="translate(15.131 18.587) translate(23.385 143.822)">
		<defs>
			<filter id="Adobe_OpacityMaskFilter" filterUnits="userSpaceOnUse" x="-2.971" y="-3.191" width="80.272" height="16.271">
				<feColorMatrix  type="matrix" values="1 0 0 0 0  0 1 0 0 0  0 0 1 0 0  0 0 0 1 0"/>
			</filter>
		</defs>
		<mask maskUnits="userSpaceOnUse" x="-2.971" y="-3.191" width="80.272" height="16.271" id="prefix__b">
			<g filter="url(#Adobe_OpacityMaskFilter)">
				<path id="prefix__a" fill="#FFFFFF" d="M61.693,0.598c-0.368,0.23-0.632,0.564-0.795,1s-0.244,0.955-0.244,1.562v3.49
					c0,0.604,0.079,1.133,0.238,1.584c0.159,0.45,0.424,0.797,0.795,1.04c0.37,0.243,0.867,0.364,1.487,0.364
					c0.621,0,1.112-0.124,1.476-0.37c0.363-0.246,0.627-0.593,0.79-1.04c0.162-0.447,0.243-0.97,0.243-1.568v-3.5
					c0-0.607-0.08-1.125-0.244-1.557c-0.162-0.431-0.426-0.765-0.79-1c-0.363-0.235-0.854-0.352-1.475-0.352
					C62.554,0.251,62.059,0.366,61.693,0.598z M62.396,8.416c-0.178-0.14-0.297-0.337-0.358-0.592c-0.06-0.253-0.09-0.55-0.09-0.891
					V2.898c0-0.34,0.03-0.634,0.09-0.88c0.061-0.246,0.18-0.435,0.358-0.568s0.438-0.2,0.778-0.2s0.598,0.067,0.772,0.2
					c0.174,0.133,0.292,0.322,0.352,0.568s0.09,0.54,0.09,0.88v4.035c0,0.34-0.03,0.638-0.09,0.891
					c-0.06,0.255-0.178,0.452-0.352,0.592s-0.431,0.21-0.772,0.21C62.834,8.626,62.574,8.556,62.396,8.416z M8.142,0.598
					c-0.367,0.23-0.632,0.564-0.794,1C7.185,2.034,7.103,2.553,7.103,3.16v3.49c0,0.604,0.08,1.133,0.24,1.584
					c0.158,0.45,0.423,0.797,0.793,1.04c0.372,0.243,0.867,0.364,1.488,0.364s1.113-0.124,1.476-0.37s0.626-0.593,0.789-1.04
					c0.163-0.447,0.244-0.97,0.244-1.568v-3.5c0-0.607-0.081-1.125-0.244-1.557c-0.163-0.431-0.426-0.765-0.789-1
					s-0.855-0.352-1.476-0.352C9.004,0.251,8.509,0.366,8.142,0.598z M8.846,8.416c-0.178-0.14-0.297-0.337-0.358-0.592
					c-0.06-0.253-0.09-0.55-0.09-0.891V2.898c0-0.34,0.03-0.634,0.09-0.88c0.061-0.246,0.18-0.435,0.358-0.568
					c0.178-0.133,0.438-0.2,0.778-0.2s0.598,0.067,0.772,0.2c0.175,0.133,0.291,0.322,0.351,0.568
					c0.062,0.246,0.092,0.54,0.092,0.88v4.035c0,0.34-0.03,0.638-0.092,0.891c-0.06,0.255-0.176,0.452-0.351,0.592
					c-0.174,0.14-0.431,0.21-0.772,0.21C9.284,8.626,9.024,8.556,8.846,8.416z M72.796,0.33v6.114L70.183,0.33h-0.874v9.205h1.09
					V3.251l2.645,6.284h0.818V0.33C73.862,0.33,72.796,0.33,72.796,0.33z M55.71,9.535h1.26V0.33h-1.26V9.535z M48.042,0.33v0.955
					h1.556v8.25h1.283v-8.25h1.51V0.33H48.042z M42.452,0.33L40.5,9.535h1.205l0.442-2.318h1.873l0.42,2.318h1.215L43.69,0.33
					H42.452L42.452,0.33z M43.078,2.148l0.772,4.149h-1.533l0.76-4.15L43.078,2.148z M32.65,0.33v9.205h2.1
					c0.645,0,1.157-0.115,1.539-0.346s0.66-0.57,0.829-1.018c0.17-0.446,0.256-0.996,0.256-1.647V3.137
					c0-0.62-0.085-1.14-0.256-1.557c-0.17-0.417-0.454-0.728-0.851-0.937C35.869,0.434,35.33,0.33,34.648,0.33H32.65z M33.934,1.285
					h0.692c0.439,0,0.76,0.068,0.965,0.205c0.205,0.136,0.337,0.351,0.397,0.648c0.061,0.294,0.092,0.681,0.092,1.158v2.99
					c0,0.491-0.022,0.912-0.063,1.26c-0.042,0.35-0.162,0.614-0.358,0.796c-0.197,0.182-0.53,0.273-0.999,0.273h-0.726
					C33.934,8.615,33.934,1.285,33.934,1.285z M27.776,0.33v6.114L25.164,0.33H24.29v9.205h1.09V3.251l2.646,6.284h0.817V0.33
					H27.776z M19.358,0.33v6.16c0,0.393-0.026,0.753-0.08,1.079c-0.052,0.326-0.166,0.584-0.34,0.773
					c-0.174,0.19-0.442,0.284-0.806,0.284c-0.356,0-0.622-0.095-0.8-0.284c-0.178-0.19-0.294-0.447-0.347-0.773
					c-0.052-0.326-0.08-0.686-0.08-1.079V0.33H15.68v6.102c0,0.645,0.063,1.207,0.192,1.688c0.13,0.482,0.371,0.855,0.727,1.12
					c0.356,0.265,0.867,0.398,1.533,0.398c0.666,0,1.175-0.133,1.528-0.398c0.352-0.265,0.592-0.638,0.72-1.12
					c0.129-0.48,0.194-1.043,0.194-1.688V0.33C20.574,0.33,19.358,0.33,19.358,0.33z M0.468,0.33v9.205h1.284V5.228h1.76V4.32h-1.76
					V1.251h2.27V0.33H0.468z"/>
			</g>
		</mask>
		<path mask="url(#prefix__b)" fill="#FD5734" d="M-2.971,13.08h80.272V-3.191H-2.971V13.08z"/>
	</g>
	<g transform="translate(15.131 18.587) translate(0 111.467)">
		<defs>
			<filter id="Adobe_OpacityMaskFilter_1_" filterUnits="userSpaceOnUse" x="-3.439" y="-3.359" width="128.813" height="30.466">
				<feColorMatrix  type="matrix" values="1 0 0 0 0  0 1 0 0 0  0 0 1 0 0  0 0 0 1 0"/>
			</filter>
		</defs>
		<mask maskUnits="userSpaceOnUse" x="-3.439" y="-3.359" width="128.813" height="30.466" id="prefix__d">
			<g filter="url(#Adobe_OpacityMaskFilter_1_)">
				<path id="prefix__c" fill="#FFFFFF" d="M95.384,0.964c-0.964,0.586-1.655,1.434-2.071,2.542
					c-0.417,1.108-0.625,2.44-0.625,3.992v8.609c0,1.553,0.208,2.898,0.625,4.034c0.416,1.137,1.107,2.008,2.071,2.614
					c0.965,0.606,2.263,0.91,3.89,0.91c1.665,0,2.975-0.309,3.931-0.924c0.956-0.616,1.646-1.486,2.072-2.614
					c0.426-1.127,0.639-2.458,0.639-3.992V7.498c0-1.553-0.213-2.884-0.64-3.992c-0.425-1.108-1.115-1.956-2.07-2.542
					c-0.957-0.587-2.267-0.88-3.932-0.88C97.647,0.084,96.349,0.377,95.384,0.964z M97.741,20.112
					c-0.34-0.302-0.563-0.72-0.667-1.249c-0.104-0.53-0.157-1.108-0.157-1.733V6.532c0-0.644,0.058-1.222,0.171-1.733
					c0.114-0.512,0.34-0.914,0.681-1.207c0.34-0.295,0.843-0.44,1.505-0.44c0.7,0,1.215,0.145,1.547,0.44
					c0.33,0.293,0.553,0.695,0.666,1.207c0.114,0.511,0.171,1.089,0.171,1.733V17.13c0,0.625-0.057,1.202-0.17,1.733
					c-0.114,0.53-0.336,0.947-0.667,1.25c-0.332,0.303-0.848,0.454-1.547,0.454C98.592,20.567,98.081,20.417,97.741,20.112z
					 M17.892,0.964c-0.965,0.586-1.656,1.434-2.072,2.542c-0.416,1.108-0.624,2.44-0.624,3.992v8.609
					c0,1.553,0.208,2.898,0.624,4.034c0.416,1.137,1.107,2.008,2.072,2.614c0.966,0.606,2.262,0.91,3.89,0.91
					c1.665,0,2.975-0.309,3.93-0.924c0.956-0.616,1.647-1.486,2.072-2.614c0.426-1.127,0.64-2.458,0.64-3.992V7.498
					c0-1.553-0.214-2.884-0.64-3.992c-0.425-1.108-1.116-1.956-2.071-2.542c-0.956-0.587-2.266-0.88-3.932-0.88
					C20.154,0.084,18.858,0.377,17.892,0.964z M20.248,20.112c-0.34-0.302-0.563-0.72-0.667-1.249
					c-0.104-0.53-0.157-1.108-0.157-1.733V6.532c0-0.644,0.058-1.222,0.172-1.733c0.113-0.512,0.34-0.914,0.68-1.207
					c0.341-0.295,0.843-0.44,1.505-0.44c0.7,0,1.216,0.145,1.547,0.44c0.331,0.293,0.553,0.695,0.667,1.207
					c0.114,0.511,0.17,1.089,0.17,1.733V17.13c0,0.625-0.056,1.202-0.17,1.733c-0.114,0.53-0.336,0.947-0.667,1.25
					s-0.846,0.454-1.547,0.454C21.101,20.567,20.589,20.417,20.248,20.112z M1.618,1.56c-1.06,0.985-1.59,2.386-1.59,4.205
					c0,1.27,0.242,2.334,0.724,3.196c0.483,0.862,1.131,1.644,1.945,2.345l2.895,2.556c0.757,0.644,1.362,1.288,1.817,1.932
					c0.454,0.644,0.68,1.468,0.68,2.471c0,0.626-0.141,1.143-0.425,1.549c-0.284,0.407-0.766,0.612-1.447,0.612
					c-0.606,0-1.093-0.185-1.463-0.554c-0.368-0.37-0.643-0.895-0.823-1.578c-0.18-0.681-0.288-1.467-0.326-2.357L0,16.647
					c0.057,1.515,0.322,2.794,0.796,3.835c0.473,1.042,1.173,1.833,2.1,2.372c0.928,0.54,2.082,0.81,3.464,0.81
					c1.154,0,2.161-0.241,3.022-0.724s1.533-1.15,2.016-2.004c0.482-0.851,0.723-1.827,0.723-2.926c0-1.515-0.335-2.807-1.007-3.878
					c-0.671-1.07-1.481-2.002-2.428-2.799L5.82,8.805c-0.606-0.53-1.07-1.047-1.391-1.549c-0.322-0.501-0.482-1.14-0.482-1.917
					c0-0.606,0.165-1.113,0.496-1.52s0.81-0.611,1.433-0.611c0.606,0,1.065,0.161,1.378,0.483c0.311,0.322,0.53,0.767,0.652,1.335
					C8.029,5.594,8.11,6.238,8.147,6.958l3.577-0.625C11.668,5.5,11.535,4.709,11.327,3.96c-0.209-0.747-0.525-1.415-0.951-2.002
					C9.949,1.37,9.377,0.91,8.658,0.58C7.938,0.249,7.039,0.083,5.96,0.083C4.124,0.083,2.677,0.575,1.618,1.56L1.618,1.56z
					 M118.47,0.339v13.126l-5.59-13.126h-2.924V23.35h3.576V9.601l5.62,13.75h2.783V0.34h-3.464L118.47,0.339z M84.391,23.35h4.144
					V0.338H84.39L84.391,23.35L84.391,23.35z M69.76,0.34v3.097h3.663V23.35h4.201V3.436h3.605V0.339H69.762L69.76,0.34z
					 M62.487,23.35h4.144V0.338h-4.144L62.487,23.35L62.487,23.35z M47.858,0.34v3.097h3.662V23.35h4.201V3.436h3.604V0.339H47.858
					V0.34z M32.463,0.34v23.01h4.201V12.81h1.93l2.783,10.54h4.2l-3.206-11.335c0.718-0.284,1.281-0.687,1.688-1.208
					c0.407-0.52,0.696-1.15,0.866-1.889c0.17-0.74,0.256-1.572,0.256-2.501c0-1.534-0.28-2.745-0.838-3.636
					c-0.558-0.89-1.372-1.52-2.442-1.89C40.833,0.523,39.522,0.34,37.97,0.34H32.463z M36.664,3.209h1.533
					c1.192,0,2.002,0.29,2.428,0.867c0.425,0.577,0.638,1.444,0.638,2.6c0,0.814-0.104,1.481-0.312,2.002s-0.553,0.9-1.036,1.136
					c-0.482,0.237-1.13,0.356-1.945,0.356h-1.306L36.664,3.209L36.664,3.209z"/>
			</g>
		</mask>
		<path mask="url(#prefix__d)" fill="#FD5734" d="M-3.439,27.107h128.813V-3.359H-3.439V27.107z"/>
	</g>
	<g transform="translate(15.131 18.587) translate(48.833 78.424)">
		<defs>
			<filter id="Adobe_OpacityMaskFilter_2_" filterUnits="userSpaceOnUse" x="-3.228" y="-3.046" width="28.167" height="27.482">
				<feColorMatrix  type="matrix" values="1 0 0 0 0  0 1 0 0 0  0 0 1 0 0  0 0 0 1 0"/>
			</filter>
		</defs>
		<mask maskUnits="userSpaceOnUse" x="-3.228" y="-3.046" width="28.167" height="27.482" id="prefix__f">
			<g filter="url(#Adobe_OpacityMaskFilter_2_)">
				<path id="prefix__e" fill="#FFFFFF" d="M12.985,4.657c0,2.354,1.906,4.261,4.258,4.261c2.351,0,4.257-1.907,4.257-4.26
					c0-2.355-1.906-4.262-4.257-4.262C14.891,0.396,12.985,2.303,12.985,4.657z M0.211,4.657c0,2.354,1.907,4.261,4.258,4.261
					c2.352,0,4.258-1.907,4.258-4.26c0-2.356-1.907-4.263-4.258-4.263C2.118,0.396,0.211,2.303,0.211,4.657z M12.985,16.732
					c0,2.353,1.906,4.26,4.258,4.26c2.351,0,4.257-1.907,4.257-4.26c0-2.354-1.906-4.262-4.257-4.262
					C14.891,12.47,12.985,14.378,12.985,16.732z M0.211,16.732c0,2.353,1.907,4.26,4.258,4.26c2.352,0,4.258-1.907,4.258-4.26
					c0-2.354-1.906-4.262-4.258-4.262C2.118,12.47,0.211,14.378,0.211,16.732z"/>
			</g>
		</mask>
		<path mask="url(#prefix__f)" fill="#720046" d="M-3.228,24.436h28.167V-3.046H-3.228V24.436z"/>
	</g>
	<g transform="translate(15.131 18.587) translate(44.706 57.772)">
		<defs>
			<filter id="Adobe_OpacityMaskFilter_3_" filterUnits="userSpaceOnUse" x="-3.358" y="-2.993" width="36.682" height="26.061">
				<feColorMatrix  type="matrix" values="1 0 0 0 0  0 1 0 0 0  0 0 1 0 0  0 0 0 1 0"/>
			</filter>
		</defs>
		<mask maskUnits="userSpaceOnUse" x="-3.358" y="-2.993" width="36.682" height="26.061" id="prefix__h">
			<g filter="url(#Adobe_OpacityMaskFilter_3_)">
				<path id="prefix__g" fill="#FFFFFF" d="M14.983,4.711c0,2.353,1.906,4.262,4.257,4.262c2.352,0,4.258-1.909,4.258-4.262
					c0-2.354-1.906-4.261-4.258-4.261C16.889,0.45,14.983,2.357,14.983,4.711z M4.338,4.711c0,2.353,1.906,4.262,4.258,4.262
					c2.351,0,4.257-1.909,4.257-4.262c0-2.354-1.906-4.261-4.257-4.261C6.244,0.45,4.338,2.357,4.338,4.711z M21.369,15.365
					c0,2.354,1.906,4.261,4.258,4.261c2.351,0,4.257-1.907,4.257-4.26c0-2.354-1.906-4.263-4.257-4.263
					C23.275,11.103,21.369,13.012,21.369,15.365z M10.725,15.365c0,2.354,1.906,4.261,4.258,4.261c2.351,0,4.257-1.907,4.257-4.26
					c0-2.354-1.906-4.263-4.257-4.263C12.631,11.103,10.725,13.012,10.725,15.365z M0.08,15.365c0,2.354,1.906,4.261,4.258,4.261
					s4.258-1.907,4.258-4.26c0-2.354-1.906-4.263-4.258-4.263S0.08,13.012,0.08,15.365z"/>
			</g>
		</mask>
		<path mask="url(#prefix__h)" fill="#820043" d="M-3.358,23.068h36.682V-2.993H-3.358V23.068z"/>
	</g>
	<g transform="translate(15.131 18.587) translate(37.828 46.069)">
		<defs>
			<filter id="Adobe_OpacityMaskFilter_4_" filterUnits="userSpaceOnUse" x="-2.867" y="-3.365" width="47.327" height="29.613">
				<feColorMatrix  type="matrix" values="1 0 0 0 0  0 1 0 0 0  0 0 1 0 0  0 0 0 1 0"/>
			</filter>
		</defs>
		<mask maskUnits="userSpaceOnUse" x="-2.867" y="-3.365" width="47.327" height="29.613" id="prefix__j">
			<g filter="url(#Adobe_OpacityMaskFilter_4_)">
				<path id="prefix__i" fill="#FFFFFF" d="M17.603,4.339c0,2.354,1.906,4.262,4.257,4.262c2.352,0,4.258-1.908,4.258-4.262
					s-1.906-4.262-4.258-4.262C19.509,0.077,17.603,1.985,17.603,4.339z M28.247,5.049c0,2.354,1.906,4.262,4.258,4.262
					c2.351,0,4.257-1.908,4.257-4.262c0-2.353-1.906-4.26-4.257-4.26C30.153,0.789,28.247,2.696,28.247,5.049z M6.958,5.759
					c0,2.354,1.906,4.262,4.258,4.262s4.258-1.908,4.258-4.262c0-2.353-1.906-4.261-4.258-4.261S6.958,3.406,6.958,5.759z
					 M32.505,16.414c0,2.353,1.906,4.262,4.257,4.262c2.352,0,4.259-1.909,4.259-4.262c0-2.354-1.907-4.262-4.259-4.262
					C34.412,12.152,32.505,14.06,32.505,16.414z M0.572,18.545c0,2.354,1.905,4.261,4.257,4.261c2.351,0,4.257-1.907,4.257-4.261
					S7.18,14.283,4.83,14.283C2.478,14.283,0.573,16.191,0.572,18.545L0.572,18.545z"/>
			</g>
		</mask>
		<path mask="url(#prefix__j)" fill="#900D3F" d="M-2.867,26.248H44.46V-3.365H-2.867V26.248z"/>
	</g>
	<g transform="translate(15.131 18.587) translate(32.326 24.728)">
		<defs>
			<filter id="Adobe_OpacityMaskFilter_5_" filterUnits="userSpaceOnUse" x="-3.042" y="-3.333" width="59.391" height="40.978">
				<feColorMatrix  type="matrix" values="1 0 0 0 0  0 1 0 0 0  0 0 1 0 0  0 0 0 1 0"/>
			</filter>
		</defs>
		<mask maskUnits="userSpaceOnUse" x="-3.042" y="-3.333" width="59.391" height="40.978" id="prefix__l">
			<g filter="url(#Adobe_OpacityMaskFilter_5_)">
				<path id="prefix__k" fill="#FFFFFF" d="M29.492,4.371c0,2.354,1.906,4.262,4.258,4.262c2.351,0,4.257-1.908,4.257-4.262
					c0-2.353-1.907-4.261-4.257-4.261c-2.352,0-4.258,1.909-4.258,4.262V4.371z M27.362,15.025c0,2.354,1.907,4.262,4.258,4.262
					c2.352,0,4.258-1.908,4.258-4.262c0-2.353-1.906-4.261-4.258-4.261C29.269,10.764,27.363,12.672,27.362,15.025L27.362,15.025z
					 M16.718,15.025c0,2.354,1.906,4.262,4.258,4.262s4.257-1.908,4.257-4.262c0-2.353-1.905-4.261-4.257-4.261
					S16.718,12.672,16.718,15.025z M38.007,15.736c0,2.354,1.906,4.261,4.257,4.261c2.352,0,4.259-1.907,4.259-4.26
					c0-2.355-1.907-4.263-4.259-4.263C39.914,11.474,38.007,13.382,38.007,15.736z M44.394,27.811c0,2.354,1.906,4.262,4.258,4.262
					c2.351,0,4.258-1.908,4.258-4.262s-1.907-4.262-4.258-4.262C46.3,23.549,44.394,25.457,44.394,27.811z M0.397,29.94
					c0,2.354,1.906,4.262,4.257,4.262c2.352,0,4.258-1.908,4.258-4.261c0-2.354-1.906-4.262-4.258-4.262
					c-2.351,0-4.257,1.908-4.257,4.262L0.397,29.94z"/>
			</g>
		</mask>
		<path mask="url(#prefix__l)" fill="#C70039" d="M-3.042,37.645h59.391V-3.333H-3.042V37.645z"/>
	</g>
	<g transform="translate(15.131 18.587) translate(24.072 12.337)">
		<defs>
			<filter id="Adobe_OpacityMaskFilter_6_" filterUnits="userSpaceOnUse" x="-3.305" y="-3.016" width="74.294" height="44.529">
				<feColorMatrix  type="matrix" values="1 0 0 0 0  0 1 0 0 0  0 0 1 0 0  0 0 0 1 0"/>
			</filter>
		</defs>
		<mask maskUnits="userSpaceOnUse" x="-3.305" y="-3.016" width="74.294" height="44.529" id="prefix__n">
			<g filter="url(#Adobe_OpacityMaskFilter_6_)">
				<path id="prefix__m" fill="#FFFFFF" d="M39.874,4.688c0,2.354,1.906,4.262,4.258,4.262c2.351,0,4.258-1.908,4.258-4.262
					s-1.907-4.261-4.258-4.261C41.78,0.427,39.874,2.334,39.874,4.688z M22.842,15.342c0,2.353,1.906,4.262,4.258,4.262
					s4.259-1.909,4.259-4.262c0-2.354-1.907-4.261-4.259-4.261s-4.258,1.907-4.258,4.26V15.342z M50.518,18.893
					c0,2.354,1.906,4.262,4.258,4.262c2.353,0,4.258-1.908,4.258-4.262c0-2.353-1.905-4.26-4.258-4.26
					C52.424,14.633,50.518,16.54,50.518,18.893z M59.034,31.678c0,2.354,1.907,4.262,4.258,4.262c2.351,0,4.258-1.908,4.258-4.262
					c0-2.353-1.907-4.262-4.258-4.262S59.034,29.325,59.034,31.678z M0.134,33.81c0,2.354,1.907,4.262,4.257,4.262
					c2.352,0,4.26-1.908,4.26-4.262s-1.908-4.261-4.26-4.261C2.041,29.549,0.134,31.456,0.134,33.81z"/>
			</g>
		</mask>
		<path mask="url(#prefix__n)" fill="#FF0025" d="M-3.305,41.513h74.294V-3.016H-3.305V41.513z"/>
	</g>
	<g transform="translate(15.131 18.587) translate(45.394 .634)">
		<defs>
			<filter id="Adobe_OpacityMaskFilter_7_" filterUnits="userSpaceOnUse" x="-3.337" y="-3.388" width="61.52" height="45.95">
				<feColorMatrix  type="matrix" values="1 0 0 0 0  0 1 0 0 0  0 0 1 0 0  0 0 0 1 0"/>
			</filter>
		</defs>
		<mask maskUnits="userSpaceOnUse" x="-3.337" y="-3.388" width="61.52" height="45.95" id="prefix__p">
			<g filter="url(#Adobe_OpacityMaskFilter_7_)">
				<path id="prefix__o" fill="#FFFFFF" d="M20.682,4.316c0,2.354,1.905,4.262,4.257,4.262s4.257-1.908,4.257-4.262
					c0-2.353-1.905-4.262-4.257-4.262S20.682,1.963,20.682,4.316z M0.102,14.97c0,2.354,1.906,4.262,4.258,4.262
					c2.351,0,4.258-1.908,4.258-4.262s-1.907-4.261-4.258-4.261C2.008,10.709,0.102,12.616,0.102,14.97z M33.455,19.942
					c0,2.354,1.906,4.262,4.258,4.262s4.258-1.908,4.258-4.262s-1.906-4.262-4.258-4.262S33.455,17.588,33.455,19.942z
					 M46.23,34.858c0,2.353,1.905,4.261,4.257,4.261s4.258-1.908,4.258-4.26c0-2.355-1.906-4.263-4.258-4.263
					S46.23,32.504,46.23,34.858z"/>
			</g>
		</mask>
		<path mask="url(#prefix__p)" fill="#FD5734" d="M-3.337,42.562h61.52v-45.95h-61.52V42.562z"/>
	</g>
</g>
</svg>
